<?xml version="1.0" encoding="UTF-8" standalone="no"?><svg xmlns="http://www.w3.org/2000/svg" xmlns:xlink="http://www.w3.org/1999/xlink" contentScriptType="application/ecmascript" contentStyleType="text/css" height="143px" preserveAspectRatio="none" style="width:300px;height:143px;" version="1.1" viewBox="0 0 300 143" width="300px" zoomAndPan="magnify"><defs/><g><!--class CarePlanActivity--><rect fill="#FEFECE" height="124.7754" id="CarePlanActivity" style="stroke: #000000; stroke-width: 1.5;" width="283" x="6" y="8"/><ellipse cx="95.75" cy="24" fill="#ADD1B2" rx="11" ry="11" style="stroke: #000000; stroke-width: 1.0;"/><path d="M98.2231,30.1431 Q97.6421,30.4419 97.0029,30.5913 Q96.3638,30.7407 95.6582,30.7407 Q93.1514,30.7407 91.8315,29.0889 Q90.5117,27.437 90.5117,24.3159 Q90.5117,21.1865 91.8315,19.5347 Q93.1514,17.8828 95.6582,17.8828 Q96.3638,17.8828 97.0112,18.0322 Q97.6587,18.1816 98.2231,18.4805 L98.2231,21.2031 Q97.5923,20.6221 96.9988,20.3523 Q96.4053,20.0825 95.7744,20.0825 Q94.4297,20.0825 93.7449,21.1492 Q93.0601,22.2158 93.0601,24.3159 Q93.0601,26.4077 93.7449,27.4744 Q94.4297,28.541 95.7744,28.541 Q96.4053,28.541 96.9988,28.2712 Q97.5923,28.0015 98.2231,27.4204 Z "/><text fill="#000000" font-family="sans-serif" font-size="12" lengthAdjust="spacingAndGlyphs" textLength="91" x="118.25" y="28.5352">CarePlanActivity</text><line style="stroke: #000000; stroke-width: 1.5;" x1="7" x2="288" y1="40" y2="40"/><text fill="#000000" font-family="sans-serif" font-size="11" lengthAdjust="spacingAndGlyphs" textLength="178" x="14" y="56.6348">detail : CarePlanActivityDetail 0..1</text><text fill="#000000" font-family="sans-serif" font-size="11" lengthAdjust="spacingAndGlyphs" textLength="267" x="14" y="73.5898">outcomeCodeableConcept : CodeableConcept 0..*</text><text fill="#000000" font-family="sans-serif" font-size="11" lengthAdjust="spacingAndGlyphs" textLength="183" x="14" y="90.5449">outcomeReference : Reference 0..*</text><text fill="#000000" font-family="sans-serif" font-size="11" lengthAdjust="spacingAndGlyphs" textLength="139" x="14" y="107.5">progress : Annotation 0..*</text><text fill="#000000" font-family="sans-serif" font-size="11" lengthAdjust="spacingAndGlyphs" textLength="136" x="14" y="124.4551">reference : Reference 0..1</text><!--
@startuml
skinparam Shadowing false
skinparam padding 2
skinparam class {
    BorderColor Black
}

hide methods

class CarePlanActivity {
	detail : CarePlanActivityDetail 0..1
	outcomeCodeableConcept : CodeableConcept 0..*
	outcomeReference : Reference 0..*
	progress : Annotation 0..*
	reference : Reference 0..1
}

@enduml

PlantUML version 1.2018.10(Sat Aug 25 19:02:59 CEST 2018)
(APACHE source distribution)
Java Runtime: Java(TM) SE Runtime Environment
JVM: Java HotSpot(TM) 64-Bit Server VM
Java Version: 1.8.0_192-b12
Operating System: Mac OS X
OS Version: 10.14.6
Default Encoding: UTF-8
Language: en
Country: DE
--></g></svg>