<?xml version="1.0" encoding="UTF-8" standalone="no"?><svg xmlns="http://www.w3.org/2000/svg" xmlns:xlink="http://www.w3.org/1999/xlink" contentScriptType="application/ecmascript" contentStyleType="text/css" height="92px" preserveAspectRatio="none" style="width:238px;height:92px;" version="1.1" viewBox="0 0 238 92" width="238px" zoomAndPan="magnify"><defs/><g><!--class DocumentReferenceRelatesTo--><rect fill="#FEFECE" height="73.9102" id="DocumentReferenceRelatesTo" style="stroke: #000000; stroke-width: 1.5;" width="221" x="6" y="8"/><ellipse cx="26.4" cy="24" fill="#ADD1B2" rx="11" ry="11" style="stroke: #000000; stroke-width: 1.0;"/><path d="M28.8731,30.1431 Q28.2921,30.4419 27.6529,30.5913 Q27.0138,30.7407 26.3082,30.7407 Q23.8014,30.7407 22.4815,29.0889 Q21.1617,27.437 21.1617,24.3159 Q21.1617,21.1865 22.4815,19.5347 Q23.8014,17.8828 26.3082,17.8828 Q27.0138,17.8828 27.6612,18.0322 Q28.3087,18.1816 28.8731,18.4805 L28.8731,21.2031 Q28.2423,20.6221 27.6488,20.3523 Q27.0553,20.0825 26.4244,20.0825 Q25.0797,20.0825 24.3949,21.1492 Q23.7101,22.2158 23.7101,24.3159 Q23.7101,26.4077 24.3949,27.4744 Q25.0797,28.541 26.4244,28.541 Q27.0553,28.541 27.6488,28.2712 Q28.2423,28.0015 28.8731,27.4204 Z "/><text fill="#000000" font-family="sans-serif" font-size="12" lengthAdjust="spacingAndGlyphs" textLength="173" x="43.6" y="28.5352">DocumentReferenceRelatesTo</text><line style="stroke: #000000; stroke-width: 1.5;" x1="7" x2="226" y1="40" y2="40"/><text fill="#000000" font-family="sans-serif" font-size="11" lengthAdjust="spacingAndGlyphs" textLength="205" x="14" y="56.6348">code : DocumentRelationshipType 1..1</text><text fill="#000000" font-family="sans-serif" font-size="11" lengthAdjust="spacingAndGlyphs" textLength="117" x="14" y="73.5898">target : Reference 1..1</text><!--
@startuml
skinparam Shadowing false
skinparam padding 2
skinparam class {
    BorderColor Black
}

hide methods

class DocumentReferenceRelatesTo {
	code : DocumentRelationshipType 1..1
	target : Reference 1..1
}

@enduml

PlantUML version 1.2018.10(Sat Aug 25 19:02:59 CEST 2018)
(APACHE source distribution)
Java Runtime: Java(TM) SE Runtime Environment
JVM: Java HotSpot(TM) 64-Bit Server VM
Java Version: 1.8.0_192-b12
Operating System: Mac OS X
OS Version: 10.14.6
Default Encoding: UTF-8
Language: en
Country: DE
--></g></svg>