<?xml version="1.0" encoding="UTF-8" standalone="no"?><svg xmlns="http://www.w3.org/2000/svg" xmlns:xlink="http://www.w3.org/1999/xlink" contentScriptType="application/ecmascript" contentStyleType="text/css" height="211px" preserveAspectRatio="none" style="width:231px;height:211px;" version="1.1" viewBox="0 0 231 211" width="231px" zoomAndPan="magnify"><defs/><g><!--class Medication--><rect fill="#FEFECE" height="192.5957" id="Medication" style="stroke: #000000; stroke-width: 1.5;" width="214" x="6" y="8"/><ellipse cx="75.75" cy="24" fill="#ADD1B2" rx="11" ry="11" style="stroke: #000000; stroke-width: 1.0;"/><path d="M78.2231,30.1431 Q77.6421,30.4419 77.0029,30.5913 Q76.3638,30.7407 75.6582,30.7407 Q73.1514,30.7407 71.8315,29.0889 Q70.5117,27.437 70.5117,24.3159 Q70.5117,21.1865 71.8315,19.5347 Q73.1514,17.8828 75.6582,17.8828 Q76.3638,17.8828 77.0112,18.0322 Q77.6587,18.1816 78.2231,18.4805 L78.2231,21.2031 Q77.5923,20.6221 76.9988,20.3523 Q76.4053,20.0825 75.7744,20.0825 Q74.4297,20.0825 73.7449,21.1492 Q73.0601,22.2158 73.0601,24.3159 Q73.0601,26.4077 73.7449,27.4744 Q74.4297,28.541 75.7744,28.541 Q76.4053,28.541 76.9988,28.2712 Q77.5923,28.0015 78.2231,27.4204 Z "/><text fill="#000000" font-family="sans-serif" font-size="12" lengthAdjust="spacingAndGlyphs" textLength="62" x="98.25" y="28.5352">Medication</text><line style="stroke: #000000; stroke-width: 1.5;" x1="7" x2="219" y1="40" y2="40"/><text fill="#000000" font-family="sans-serif" font-size="11" lengthAdjust="spacingAndGlyphs" textLength="153" x="14" y="56.6348">code : CodeableConcept 0..1</text><text fill="#000000" font-family="sans-serif" font-size="11" lengthAdjust="spacingAndGlyphs" textLength="153" x="14" y="73.5898">form : CodeableConcept 0..1</text><text fill="#000000" font-family="sans-serif" font-size="11" lengthAdjust="spacingAndGlyphs" textLength="124" x="14" y="90.5449">image : Attachment 0..*</text><text fill="#000000" font-family="sans-serif" font-size="11" lengthAdjust="spacingAndGlyphs" textLength="198" x="14" y="107.5">ingredient : MedicationIngredient 0..*</text><text fill="#000000" font-family="sans-serif" font-size="11" lengthAdjust="spacingAndGlyphs" textLength="114" x="14" y="124.4551">isBrand : Boolean 0..1</text><text fill="#000000" font-family="sans-serif" font-size="11" lengthAdjust="spacingAndGlyphs" textLength="173" x="14" y="141.4102">isOverTheCounter : Boolean 0..1</text><text fill="#000000" font-family="sans-serif" font-size="11" lengthAdjust="spacingAndGlyphs" textLength="158" x="14" y="158.3652">manufacturer : Reference 0..1</text><text fill="#000000" font-family="sans-serif" font-size="11" lengthAdjust="spacingAndGlyphs" textLength="177" x="14" y="175.3203">package : MedicationPackage 0..1</text><text fill="#000000" font-family="sans-serif" font-size="11" lengthAdjust="spacingAndGlyphs" textLength="156" x="14" y="192.2754">status : MedicationStatus 0..1</text><!--
@startuml
skinparam Shadowing false
skinparam padding 2
skinparam class {
    BorderColor Black
}

hide methods

class Medication {
	code : CodeableConcept 0..1
	form : CodeableConcept 0..1
	image : Attachment 0..*
	ingredient : MedicationIngredient 0..*
	isBrand : Boolean 0..1
	isOverTheCounter : Boolean 0..1
	manufacturer : Reference 0..1
	package : MedicationPackage 0..1
	status : MedicationStatus 0..1
}

@enduml

PlantUML version 1.2018.10(Sat Aug 25 19:02:59 CEST 2018)
(APACHE source distribution)
Java Runtime: Java(TM) SE Runtime Environment
JVM: Java HotSpot(TM) 64-Bit Server VM
Java Version: 1.8.0_192-b12
Operating System: Mac OS X
OS Version: 10.14.6
Default Encoding: UTF-8
Language: en
Country: DE
--></g></svg>