<?xml version="1.0" encoding="UTF-8" standalone="no"?><svg xmlns="http://www.w3.org/2000/svg" xmlns:xlink="http://www.w3.org/1999/xlink" contentScriptType="application/ecmascript" contentStyleType="text/css" height="126px" preserveAspectRatio="none" style="width:278px;height:126px;" version="1.1" viewBox="0 0 278 126" width="278px" zoomAndPan="magnify"><defs/><g><!--class MedicationIngredient--><rect fill="#FEFECE" height="107.8203" id="MedicationIngredient" style="stroke: #000000; stroke-width: 1.5;" width="261" x="6" y="8"/><ellipse cx="70.25" cy="24" fill="#ADD1B2" rx="11" ry="11" style="stroke: #000000; stroke-width: 1.0;"/><path d="M72.7231,30.1431 Q72.1421,30.4419 71.5029,30.5913 Q70.8638,30.7407 70.1582,30.7407 Q67.6514,30.7407 66.3315,29.0889 Q65.0117,27.437 65.0117,24.3159 Q65.0117,21.1865 66.3315,19.5347 Q67.6514,17.8828 70.1582,17.8828 Q70.8638,17.8828 71.5112,18.0322 Q72.1587,18.1816 72.7231,18.4805 L72.7231,21.2031 Q72.0923,20.6221 71.4988,20.3523 Q70.9053,20.0825 70.2744,20.0825 Q68.9297,20.0825 68.2449,21.1492 Q67.5601,22.2158 67.5601,24.3159 Q67.5601,26.4077 68.2449,27.4744 Q68.9297,28.541 70.2744,28.541 Q70.9053,28.541 71.4988,28.2712 Q72.0923,28.0015 72.7231,27.4204 Z "/><text fill="#000000" font-family="sans-serif" font-size="12" lengthAdjust="spacingAndGlyphs" textLength="120" x="92.75" y="28.5352">MedicationIngredient</text><line style="stroke: #000000; stroke-width: 1.5;" x1="7" x2="266" y1="40" y2="40"/><text fill="#000000" font-family="sans-serif" font-size="11" lengthAdjust="spacingAndGlyphs" textLength="100" x="14" y="56.6348">amount : Ratio 0..1</text><text fill="#000000" font-family="sans-serif" font-size="11" lengthAdjust="spacingAndGlyphs" textLength="116" x="14" y="73.5898">isActive : Boolean 0..1</text><text fill="#000000" font-family="sans-serif" font-size="11" lengthAdjust="spacingAndGlyphs" textLength="245" x="14" y="90.5449">itemCodeableConcept : CodeableConcept 1..1</text><text fill="#000000" font-family="sans-serif" font-size="11" lengthAdjust="spacingAndGlyphs" textLength="161" x="14" y="107.5">itemReference : Reference 1..1</text><!--
@startuml
skinparam Shadowing false
skinparam padding 2
skinparam class {
    BorderColor Black
}

hide methods

class MedicationIngredient {
	amount : Ratio 0..1
	isActive : Boolean 0..1
	itemCodeableConcept : CodeableConcept 1..1
	itemReference : Reference 1..1
}

@enduml

PlantUML version 1.2018.10(Sat Aug 25 19:02:59 CEST 2018)
(APACHE source distribution)
Java Runtime: Java(TM) SE Runtime Environment
JVM: Java HotSpot(TM) 64-Bit Server VM
Java Version: 1.8.0_192-b12
Operating System: Mac OS X
OS Version: 10.14.6
Default Encoding: UTF-8
Language: en
Country: DE
--></g></svg>