<?xml version="1.0" encoding="UTF-8" standalone="no"?><svg xmlns="http://www.w3.org/2000/svg" xmlns:xlink="http://www.w3.org/1999/xlink" contentScriptType="application/ecmascript" contentStyleType="text/css" height="109px" preserveAspectRatio="none" style="width:278px;height:109px;" version="1.1" viewBox="0 0 278 109" width="278px" zoomAndPan="magnify"><defs/><g><!--class MedicationPackageContent--><rect fill="#FEFECE" height="90.8652" id="MedicationPackageContent" style="stroke: #000000; stroke-width: 1.5;" width="261" x="6" y="8"/><ellipse cx="53.25" cy="24" fill="#ADD1B2" rx="11" ry="11" style="stroke: #000000; stroke-width: 1.0;"/><path d="M55.7231,30.1431 Q55.1421,30.4419 54.5029,30.5913 Q53.8638,30.7407 53.1582,30.7407 Q50.6514,30.7407 49.3315,29.0889 Q48.0117,27.437 48.0117,24.3159 Q48.0117,21.1865 49.3315,19.5347 Q50.6514,17.8828 53.1582,17.8828 Q53.8638,17.8828 54.5112,18.0322 Q55.1587,18.1816 55.7231,18.4805 L55.7231,21.2031 Q55.0923,20.6221 54.4988,20.3523 Q53.9053,20.0825 53.2744,20.0825 Q51.9297,20.0825 51.2449,21.1492 Q50.5601,22.2158 50.5601,24.3159 Q50.5601,26.4077 51.2449,27.4744 Q51.9297,28.541 53.2744,28.541 Q53.9053,28.541 54.4988,28.2712 Q55.0923,28.0015 55.7231,27.4204 Z "/><text fill="#000000" font-family="sans-serif" font-size="12" lengthAdjust="spacingAndGlyphs" textLength="154" x="75.75" y="28.5352">MedicationPackageContent</text><line style="stroke: #000000; stroke-width: 1.5;" x1="7" x2="266" y1="40" y2="40"/><text fill="#000000" font-family="sans-serif" font-size="11" lengthAdjust="spacingAndGlyphs" textLength="119" x="14" y="56.6348">amount : Quantity 0..1</text><text fill="#000000" font-family="sans-serif" font-size="11" lengthAdjust="spacingAndGlyphs" textLength="245" x="14" y="73.5898">itemCodeableConcept : CodeableConcept 1..1</text><text fill="#000000" font-family="sans-serif" font-size="11" lengthAdjust="spacingAndGlyphs" textLength="161" x="14" y="90.5449">itemReference : Reference 1..1</text><!--
@startuml
skinparam Shadowing false
skinparam padding 2
skinparam class {
    BorderColor Black
}

hide methods

class MedicationPackageContent {
	amount : Quantity 0..1
	itemCodeableConcept : CodeableConcept 1..1
	itemReference : Reference 1..1
}

@enduml

PlantUML version 1.2018.10(Sat Aug 25 19:02:59 CEST 2018)
(APACHE source distribution)
Java Runtime: Java(TM) SE Runtime Environment
JVM: Java HotSpot(TM) 64-Bit Server VM
Java Version: 1.8.0_192-b12
Operating System: Mac OS X
OS Version: 10.14.6
Default Encoding: UTF-8
Language: en
Country: DE
--></g></svg>