<?xml version="1.0" encoding="UTF-8" standalone="no"?><svg xmlns="http://www.w3.org/2000/svg" xmlns:xlink="http://www.w3.org/1999/xlink" contentScriptType="application/ecmascript" contentStyleType="text/css" height="109px" preserveAspectRatio="none" style="width:248px;height:109px;" version="1.1" viewBox="0 0 248 109" width="248px" zoomAndPan="magnify"><defs/><g><!--class MedicationPackage--><rect fill="#FEFECE" height="90.8652" id="MedicationPackage" style="stroke: #000000; stroke-width: 1.5;" width="231" x="6" y="8"/><ellipse cx="60.25" cy="24" fill="#ADD1B2" rx="11" ry="11" style="stroke: #000000; stroke-width: 1.0;"/><path d="M62.7231,30.1431 Q62.1421,30.4419 61.5029,30.5913 Q60.8638,30.7407 60.1582,30.7407 Q57.6514,30.7407 56.3315,29.0889 Q55.0117,27.437 55.0117,24.3159 Q55.0117,21.1865 56.3315,19.5347 Q57.6514,17.8828 60.1582,17.8828 Q60.8638,17.8828 61.5112,18.0322 Q62.1587,18.1816 62.7231,18.4805 L62.7231,21.2031 Q62.0923,20.6221 61.4988,20.3523 Q60.9053,20.0825 60.2744,20.0825 Q58.9297,20.0825 58.2449,21.1492 Q57.5601,22.2158 57.5601,24.3159 Q57.5601,26.4077 58.2449,27.4744 Q58.9297,28.541 60.2744,28.541 Q60.9053,28.541 61.4988,28.2712 Q62.0923,28.0015 62.7231,27.4204 Z "/><text fill="#000000" font-family="sans-serif" font-size="12" lengthAdjust="spacingAndGlyphs" textLength="110" x="82.75" y="28.5352">MedicationPackage</text><line style="stroke: #000000; stroke-width: 1.5;" x1="7" x2="236" y1="40" y2="40"/><text fill="#000000" font-family="sans-serif" font-size="11" lengthAdjust="spacingAndGlyphs" textLength="190" x="14" y="56.6348">batch : MedicationPackageBatch 0..*</text><text fill="#000000" font-family="sans-serif" font-size="11" lengthAdjust="spacingAndGlyphs" textLength="178" x="14" y="73.5898">container : CodeableConcept 0..1</text><text fill="#000000" font-family="sans-serif" font-size="11" lengthAdjust="spacingAndGlyphs" textLength="215" x="14" y="90.5449">content : MedicationPackageContent 0..*</text><!--
@startuml
skinparam Shadowing false
skinparam padding 2
skinparam class {
    BorderColor Black
}

hide methods

class MedicationPackage {
	batch : MedicationPackageBatch 0..*
	container : CodeableConcept 0..1
	content : MedicationPackageContent 0..*
}

@enduml

PlantUML version 1.2018.10(Sat Aug 25 19:02:59 CEST 2018)
(APACHE source distribution)
Java Runtime: Java(TM) SE Runtime Environment
JVM: Java HotSpot(TM) 64-Bit Server VM
Java Version: 1.8.0_192-b12
Operating System: Mac OS X
OS Version: 10.14.6
Default Encoding: UTF-8
Language: en
Country: DE
--></g></svg>