<?xml version="1.0" encoding="UTF-8" standalone="no"?><svg xmlns="http://www.w3.org/2000/svg" xmlns:xlink="http://www.w3.org/1999/xlink" contentScriptType="application/ecmascript" contentStyleType="text/css" height="228px" preserveAspectRatio="none" style="width:215px;height:228px;" version="1.1" viewBox="0 0 215 228" width="215px" zoomAndPan="magnify"><defs/><g><!--class Organization--><rect fill="#FEFECE" height="209.5508" id="Organization" style="stroke: #000000; stroke-width: 1.5;" width="198" x="6" y="8"/><ellipse cx="62.25" cy="24" fill="#ADD1B2" rx="11" ry="11" style="stroke: #000000; stroke-width: 1.0;"/><path d="M64.7231,30.1431 Q64.1421,30.4419 63.5029,30.5913 Q62.8638,30.7407 62.1582,30.7407 Q59.6514,30.7407 58.3315,29.0889 Q57.0117,27.437 57.0117,24.3159 Q57.0117,21.1865 58.3315,19.5347 Q59.6514,17.8828 62.1582,17.8828 Q62.8638,17.8828 63.5112,18.0322 Q64.1587,18.1816 64.7231,18.4805 L64.7231,21.2031 Q64.0923,20.6221 63.4988,20.3523 Q62.9053,20.0825 62.2744,20.0825 Q60.9297,20.0825 60.2449,21.1492 Q59.5601,22.2158 59.5601,24.3159 Q59.5601,26.4077 60.2449,27.4744 Q60.9297,28.541 62.2744,28.541 Q62.9053,28.541 63.4988,28.2712 Q64.0923,28.0015 64.7231,27.4204 Z "/><text fill="#000000" font-family="sans-serif" font-size="12" lengthAdjust="spacingAndGlyphs" textLength="73" x="84.75" y="28.5352">Organization</text><line style="stroke: #000000; stroke-width: 1.5;" x1="7" x2="203" y1="40" y2="40"/><text fill="#000000" font-family="sans-serif" font-size="11" lengthAdjust="spacingAndGlyphs" textLength="105" x="14" y="56.6348">active : Boolean 0..1</text><text fill="#000000" font-family="sans-serif" font-size="11" lengthAdjust="spacingAndGlyphs" textLength="118" x="14" y="73.5898">address : Address 0..*</text><text fill="#000000" font-family="sans-serif" font-size="11" lengthAdjust="spacingAndGlyphs" textLength="86" x="14" y="90.5449">alias : String 0..*</text><text fill="#000000" font-family="sans-serif" font-size="11" lengthAdjust="spacingAndGlyphs" textLength="182" x="14" y="107.5">contact : OrganizationContact 0..*</text><text fill="#000000" font-family="sans-serif" font-size="11" lengthAdjust="spacingAndGlyphs" textLength="131" x="14" y="124.4551">endpoint : Reference 0..*</text><text fill="#000000" font-family="sans-serif" font-size="11" lengthAdjust="spacingAndGlyphs" textLength="126" x="14" y="141.4102">identifier : Identifier 0..*</text><text fill="#000000" font-family="sans-serif" font-size="11" lengthAdjust="spacingAndGlyphs" textLength="93" x="14" y="158.3652">name : String 0..1</text><text fill="#000000" font-family="sans-serif" font-size="11" lengthAdjust="spacingAndGlyphs" textLength="120" x="14" y="175.3203">partOf : Reference 0..1</text><text fill="#000000" font-family="sans-serif" font-size="11" lengthAdjust="spacingAndGlyphs" textLength="141" x="14" y="192.2754">telecom : ContactPoint 0..*</text><text fill="#000000" font-family="sans-serif" font-size="11" lengthAdjust="spacingAndGlyphs" textLength="148" x="14" y="209.2305">type : CodeableConcept 0..*</text><!--
@startuml
skinparam Shadowing false
skinparam padding 2
skinparam class {
    BorderColor Black
}

hide methods

class Organization {
	active : Boolean 0..1
	address : Address 0..*
	alias : String 0..*
	contact : OrganizationContact 0..*
	endpoint : Reference 0..*
	identifier : Identifier 0..*
	name : String 0..1
	partOf : Reference 0..1
	telecom : ContactPoint 0..*
	type : CodeableConcept 0..*
}

@enduml

PlantUML version 1.2018.10(Sat Aug 25 19:02:59 CEST 2018)
(APACHE source distribution)
Java Runtime: Java(TM) SE Runtime Environment
JVM: Java HotSpot(TM) 64-Bit Server VM
Java Version: 1.8.0_192-b12
Operating System: Mac OS X
OS Version: 10.14.6
Default Encoding: UTF-8
Language: en
Country: DE
--></g></svg>