<?xml version="1.0" encoding="UTF-8" standalone="no"?><svg xmlns="http://www.w3.org/2000/svg" xmlns:xlink="http://www.w3.org/1999/xlink" contentScriptType="application/ecmascript" contentStyleType="text/css" height="126px" preserveAspectRatio="none" style="width:205px;height:126px;" version="1.1" viewBox="0 0 205 126" width="205px" zoomAndPan="magnify"><defs/><g><!--class OrganizationContact--><rect fill="#FEFECE" height="107.8203" id="OrganizationContact" style="stroke: #000000; stroke-width: 1.5;" width="188" x="6" y="8"/><ellipse cx="37.2" cy="24" fill="#ADD1B2" rx="11" ry="11" style="stroke: #000000; stroke-width: 1.0;"/><path d="M39.6731,30.1431 Q39.0921,30.4419 38.4529,30.5913 Q37.8138,30.7407 37.1082,30.7407 Q34.6014,30.7407 33.2815,29.0889 Q31.9617,27.437 31.9617,24.3159 Q31.9617,21.1865 33.2815,19.5347 Q34.6014,17.8828 37.1082,17.8828 Q37.8138,17.8828 38.4612,18.0322 Q39.1087,18.1816 39.6731,18.4805 L39.6731,21.2031 Q39.0423,20.6221 38.4488,20.3523 Q37.8553,20.0825 37.2244,20.0825 Q35.8797,20.0825 35.1949,21.1492 Q34.5101,22.2158 34.5101,24.3159 Q34.5101,26.4077 35.1949,27.4744 Q35.8797,28.541 37.2244,28.541 Q37.8553,28.541 38.4488,28.2712 Q39.0423,28.0015 39.6731,27.4204 Z "/><text fill="#000000" font-family="sans-serif" font-size="12" lengthAdjust="spacingAndGlyphs" textLength="116" x="56.8" y="28.5352">OrganizationContact</text><line style="stroke: #000000; stroke-width: 1.5;" x1="7" x2="193" y1="40" y2="40"/><text fill="#000000" font-family="sans-serif" font-size="11" lengthAdjust="spacingAndGlyphs" textLength="120" x="14" y="56.6348">address : Address 0..1</text><text fill="#000000" font-family="sans-serif" font-size="11" lengthAdjust="spacingAndGlyphs" textLength="129" x="14" y="73.5898">name : HumanName 0..1</text><text fill="#000000" font-family="sans-serif" font-size="11" lengthAdjust="spacingAndGlyphs" textLength="172" x="14" y="90.5449">purpose : CodeableConcept 0..1</text><text fill="#000000" font-family="sans-serif" font-size="11" lengthAdjust="spacingAndGlyphs" textLength="141" x="14" y="107.5">telecom : ContactPoint 0..*</text><!--
@startuml
skinparam Shadowing false
skinparam padding 2
skinparam class {
    BorderColor Black
}

hide methods

class OrganizationContact {
	address : Address 0..1
	name : HumanName 0..1
	purpose : CodeableConcept 0..1
	telecom : ContactPoint 0..*
}

@enduml

PlantUML version 1.2018.10(Sat Aug 25 19:02:59 CEST 2018)
(APACHE source distribution)
Java Runtime: Java(TM) SE Runtime Environment
JVM: Java HotSpot(TM) 64-Bit Server VM
Java Version: 1.8.0_192-b12
Operating System: Mac OS X
OS Version: 10.14.6
Default Encoding: UTF-8
Language: en
Country: DE
--></g></svg>