<?xml version="1.0" encoding="UTF-8" standalone="no"?><svg xmlns="http://www.w3.org/2000/svg" xmlns:xlink="http://www.w3.org/1999/xlink" contentScriptType="application/ecmascript" contentStyleType="text/css" height="92px" preserveAspectRatio="none" style="width:147px;height:92px;" version="1.1" viewBox="0 0 147 92" width="147px" zoomAndPan="magnify"><defs/><g><!--class PatientLink--><rect fill="#FEFECE" height="73.9102" id="PatientLink" style="stroke: #000000; stroke-width: 1.5;" width="130" x="6" y="8"/><ellipse cx="35.4" cy="24" fill="#ADD1B2" rx="11" ry="11" style="stroke: #000000; stroke-width: 1.0;"/><path d="M37.8731,30.1431 Q37.2921,30.4419 36.6529,30.5913 Q36.0138,30.7407 35.3082,30.7407 Q32.8014,30.7407 31.4815,29.0889 Q30.1617,27.437 30.1617,24.3159 Q30.1617,21.1865 31.4815,19.5347 Q32.8014,17.8828 35.3082,17.8828 Q36.0138,17.8828 36.6612,18.0322 Q37.3087,18.1816 37.8731,18.4805 L37.8731,21.2031 Q37.2423,20.6221 36.6488,20.3523 Q36.0553,20.0825 35.4244,20.0825 Q34.0797,20.0825 33.3949,21.1492 Q32.7101,22.2158 32.7101,24.3159 Q32.7101,26.4077 33.3949,27.4744 Q34.0797,28.541 35.4244,28.541 Q36.0553,28.541 36.6488,28.2712 Q37.2423,28.0015 37.8731,27.4204 Z "/><text fill="#000000" font-family="sans-serif" font-size="12" lengthAdjust="spacingAndGlyphs" textLength="62" x="54.6" y="28.5352">PatientLink</text><line style="stroke: #000000; stroke-width: 1.5;" x1="7" x2="135" y1="40" y2="40"/><text fill="#000000" font-family="sans-serif" font-size="11" lengthAdjust="spacingAndGlyphs" textLength="114" x="14" y="56.6348">other : Reference 1..1</text><text fill="#000000" font-family="sans-serif" font-size="11" lengthAdjust="spacingAndGlyphs" textLength="103" x="14" y="73.5898">type : LinkType 1..1</text><!--
@startuml
skinparam Shadowing false
skinparam padding 2
skinparam class {
    BorderColor Black
}

hide methods

class PatientLink {
	other : Reference 1..1
	type : LinkType 1..1
}

@enduml

PlantUML version 1.2018.10(Sat Aug 25 19:02:59 CEST 2018)
(APACHE source distribution)
Java Runtime: Java(TM) SE Runtime Environment
JVM: Java HotSpot(TM) 64-Bit Server VM
Java Version: 1.8.0_192-b12
Operating System: Mac OS X
OS Version: 10.14.6
Default Encoding: UTF-8
Language: en
Country: DE
--></g></svg>