<?xml version="1.0" encoding="UTF-8" standalone="no"?><svg xmlns="http://www.w3.org/2000/svg" xmlns:xlink="http://www.w3.org/1999/xlink" contentScriptType="application/ecmascript" contentStyleType="text/css" height="109px" preserveAspectRatio="none" style="width:231px;height:109px;" version="1.1" viewBox="0 0 231 109" width="231px" zoomAndPan="magnify"><defs/><g><!--class PatientAnimal--><rect fill="#FEFECE" height="90.8652" id="PatientAnimal" style="stroke: #000000; stroke-width: 1.5;" width="214" x="6" y="8"/><ellipse cx="67.75" cy="24" fill="#ADD1B2" rx="11" ry="11" style="stroke: #000000; stroke-width: 1.0;"/><path d="M70.2231,30.1431 Q69.6421,30.4419 69.0029,30.5913 Q68.3638,30.7407 67.6582,30.7407 Q65.1514,30.7407 63.8315,29.0889 Q62.5117,27.437 62.5117,24.3159 Q62.5117,21.1865 63.8315,19.5347 Q65.1514,17.8828 67.6582,17.8828 Q68.3638,17.8828 69.0112,18.0322 Q69.6587,18.1816 70.2231,18.4805 L70.2231,21.2031 Q69.5923,20.6221 68.9988,20.3523 Q68.4053,20.0825 67.7744,20.0825 Q66.4297,20.0825 65.7449,21.1492 Q65.0601,22.2158 65.0601,24.3159 Q65.0601,26.4077 65.7449,27.4744 Q66.4297,28.541 67.7744,28.541 Q68.4053,28.541 68.9988,28.2712 Q69.5923,28.0015 70.2231,27.4204 Z "/><text fill="#000000" font-family="sans-serif" font-size="12" lengthAdjust="spacingAndGlyphs" textLength="78" x="90.25" y="28.5352">PatientAnimal</text><line style="stroke: #000000; stroke-width: 1.5;" x1="7" x2="219" y1="40" y2="40"/><text fill="#000000" font-family="sans-serif" font-size="11" lengthAdjust="spacingAndGlyphs" textLength="158" x="14" y="56.6348">breed : CodeableConcept 0..1</text><text fill="#000000" font-family="sans-serif" font-size="11" lengthAdjust="spacingAndGlyphs" textLength="198" x="14" y="73.5898">genderStatus : CodeableConcept 0..1</text><text fill="#000000" font-family="sans-serif" font-size="11" lengthAdjust="spacingAndGlyphs" textLength="167" x="14" y="90.5449">species : CodeableConcept 1..1</text><!--
@startuml
skinparam Shadowing false
skinparam padding 2
skinparam class {
    BorderColor Black
}

hide methods

class PatientAnimal {
	breed : CodeableConcept 0..1
	genderStatus : CodeableConcept 0..1
	species : CodeableConcept 1..1
}

@enduml

PlantUML version 1.2018.10(Sat Aug 25 19:02:59 CEST 2018)
(APACHE source distribution)
Java Runtime: Java(TM) SE Runtime Environment
JVM: Java HotSpot(TM) 64-Bit Server VM
Java Version: 1.8.0_192-b12
Operating System: Mac OS X
OS Version: 10.14.6
Default Encoding: UTF-8
Language: en
Country: DE
--></g></svg>