<?xml version="1.0" encoding="UTF-8" standalone="no"?><svg xmlns="http://www.w3.org/2000/svg" xmlns:xlink="http://www.w3.org/1999/xlink" contentScriptType="application/ecmascript" contentStyleType="text/css" height="92px" preserveAspectRatio="none" style="width:209px;height:92px;" version="1.1" viewBox="0 0 209 92" width="209px" zoomAndPan="magnify"><defs/><g><!--class PatientCommunication--><rect fill="#FEFECE" height="73.9102" id="PatientCommunication" style="stroke: #000000; stroke-width: 1.5;" width="192" x="6" y="8"/><ellipse cx="34.05" cy="24" fill="#ADD1B2" rx="11" ry="11" style="stroke: #000000; stroke-width: 1.0;"/><path d="M36.5231,30.1431 Q35.9421,30.4419 35.3029,30.5913 Q34.6638,30.7407 33.9582,30.7407 Q31.4514,30.7407 30.1315,29.0889 Q28.8117,27.437 28.8117,24.3159 Q28.8117,21.1865 30.1315,19.5347 Q31.4514,17.8828 33.9582,17.8828 Q34.6638,17.8828 35.3112,18.0322 Q35.9587,18.1816 36.5231,18.4805 L36.5231,21.2031 Q35.8923,20.6221 35.2988,20.3523 Q34.7053,20.0825 34.0744,20.0825 Q32.7297,20.0825 32.0449,21.1492 Q31.3601,22.2158 31.3601,24.3159 Q31.3601,26.4077 32.0449,27.4744 Q32.7297,28.541 34.0744,28.541 Q34.7053,28.541 35.2988,28.2712 Q35.8923,28.0015 36.5231,27.4204 Z "/><text fill="#000000" font-family="sans-serif" font-size="12" lengthAdjust="spacingAndGlyphs" textLength="127" x="52.95" y="28.5352">PatientCommunication</text><line style="stroke: #000000; stroke-width: 1.5;" x1="7" x2="197" y1="40" y2="40"/><text fill="#000000" font-family="sans-serif" font-size="11" lengthAdjust="spacingAndGlyphs" textLength="176" x="14" y="56.6348">language : CodeableConcept 1..1</text><text fill="#000000" font-family="sans-serif" font-size="11" lengthAdjust="spacingAndGlyphs" textLength="125" x="14" y="73.5898">preferred : Boolean 0..1</text><!--
@startuml
skinparam Shadowing false
skinparam padding 2
skinparam class {
    BorderColor Black
}

hide methods

class PatientCommunication {
	language : CodeableConcept 1..1
	preferred : Boolean 0..1
}

@enduml

PlantUML version 1.2018.10(Sat Aug 25 19:02:59 CEST 2018)
(APACHE source distribution)
Java Runtime: Java(TM) SE Runtime Environment
JVM: Java HotSpot(TM) 64-Bit Server VM
Java Version: 1.8.0_192-b12
Operating System: Mac OS X
OS Version: 10.14.6
Default Encoding: UTF-8
Language: en
Country: DE
--></g></svg>