<?xml version="1.0" encoding="UTF-8" standalone="no"?><svg xmlns="http://www.w3.org/2000/svg" xmlns:xlink="http://www.w3.org/1999/xlink" contentScriptType="application/ecmascript" contentStyleType="text/css" height="177px" preserveAspectRatio="none" style="width:222px;height:177px;" version="1.1" viewBox="0 0 222 177" width="222px" zoomAndPan="magnify"><defs/><g><!--class PatientContact--><rect fill="#FEFECE" height="158.6855" id="PatientContact" style="stroke: #000000; stroke-width: 1.5;" width="205" x="6" y="8"/><ellipse cx="61.25" cy="24" fill="#ADD1B2" rx="11" ry="11" style="stroke: #000000; stroke-width: 1.0;"/><path d="M63.7231,30.1431 Q63.1421,30.4419 62.5029,30.5913 Q61.8638,30.7407 61.1582,30.7407 Q58.6514,30.7407 57.3315,29.0889 Q56.0117,27.437 56.0117,24.3159 Q56.0117,21.1865 57.3315,19.5347 Q58.6514,17.8828 61.1582,17.8828 Q61.8638,17.8828 62.5112,18.0322 Q63.1587,18.1816 63.7231,18.4805 L63.7231,21.2031 Q63.0923,20.6221 62.4988,20.3523 Q61.9053,20.0825 61.2744,20.0825 Q59.9297,20.0825 59.2449,21.1492 Q58.5601,22.2158 58.5601,24.3159 Q58.5601,26.4077 59.2449,27.4744 Q59.9297,28.541 61.2744,28.541 Q61.9053,28.541 62.4988,28.2712 Q63.0923,28.0015 63.7231,27.4204 Z "/><text fill="#000000" font-family="sans-serif" font-size="12" lengthAdjust="spacingAndGlyphs" textLength="82" x="83.75" y="28.5352">PatientContact</text><line style="stroke: #000000; stroke-width: 1.5;" x1="7" x2="210" y1="40" y2="40"/><text fill="#000000" font-family="sans-serif" font-size="11" lengthAdjust="spacingAndGlyphs" textLength="120" x="14" y="56.6348">address : Address 0..1</text><text fill="#000000" font-family="sans-serif" font-size="11" lengthAdjust="spacingAndGlyphs" textLength="187" x="14" y="73.5898">gender : AdministrativeGender 0..1</text><text fill="#000000" font-family="sans-serif" font-size="11" lengthAdjust="spacingAndGlyphs" textLength="129" x="14" y="90.5449">name : HumanName 0..1</text><text fill="#000000" font-family="sans-serif" font-size="11" lengthAdjust="spacingAndGlyphs" textLength="153" x="14" y="107.5">organization : Reference 0..1</text><text fill="#000000" font-family="sans-serif" font-size="11" lengthAdjust="spacingAndGlyphs" textLength="101" x="14" y="124.4551">period : Period 0..1</text><text fill="#000000" font-family="sans-serif" font-size="11" lengthAdjust="spacingAndGlyphs" textLength="189" x="14" y="141.4102">relationship : CodeableConcept 0..*</text><text fill="#000000" font-family="sans-serif" font-size="11" lengthAdjust="spacingAndGlyphs" textLength="141" x="14" y="158.3652">telecom : ContactPoint 0..*</text><!--
@startuml
skinparam Shadowing false
skinparam padding 2
skinparam class {
    BorderColor Black
}

hide methods

class PatientContact {
	address : Address 0..1
	gender : AdministrativeGender 0..1
	name : HumanName 0..1
	organization : Reference 0..1
	period : Period 0..1
	relationship : CodeableConcept 0..*
	telecom : ContactPoint 0..*
}

@enduml

PlantUML version 1.2018.10(Sat Aug 25 19:02:59 CEST 2018)
(APACHE source distribution)
Java Runtime: Java(TM) SE Runtime Environment
JVM: Java HotSpot(TM) 64-Bit Server VM
Java Version: 1.8.0_192-b12
Operating System: Mac OS X
OS Version: 10.14.6
Default Encoding: UTF-8
Language: en
Country: DE
--></g></svg>