<?xml version="1.0" encoding="UTF-8" standalone="no"?><svg xmlns="http://www.w3.org/2000/svg" xmlns:xlink="http://www.w3.org/1999/xlink" contentScriptType="application/ecmascript" contentStyleType="text/css" height="228px" preserveAspectRatio="none" style="width:259px;height:228px;" version="1.1" viewBox="0 0 259 228" width="259px" zoomAndPan="magnify"><defs/><g><!--class Practitioner--><rect fill="#FEFECE" height="209.5508" id="Practitioner" style="stroke: #000000; stroke-width: 1.5;" width="242" x="6" y="8"/><ellipse cx="88.25" cy="24" fill="#ADD1B2" rx="11" ry="11" style="stroke: #000000; stroke-width: 1.0;"/><path d="M90.7231,30.1431 Q90.1421,30.4419 89.5029,30.5913 Q88.8638,30.7407 88.1582,30.7407 Q85.6514,30.7407 84.3315,29.0889 Q83.0117,27.437 83.0117,24.3159 Q83.0117,21.1865 84.3315,19.5347 Q85.6514,17.8828 88.1582,17.8828 Q88.8638,17.8828 89.5112,18.0322 Q90.1587,18.1816 90.7231,18.4805 L90.7231,21.2031 Q90.0923,20.6221 89.4988,20.3523 Q88.9053,20.0825 88.2744,20.0825 Q86.9297,20.0825 86.2449,21.1492 Q85.5601,22.2158 85.5601,24.3159 Q85.5601,26.4077 86.2449,27.4744 Q86.9297,28.541 88.2744,28.541 Q88.9053,28.541 89.4988,28.2712 Q90.0923,28.0015 90.7231,27.4204 Z "/><text fill="#000000" font-family="sans-serif" font-size="12" lengthAdjust="spacingAndGlyphs" textLength="65" x="110.75" y="28.5352">Practitioner</text><line style="stroke: #000000; stroke-width: 1.5;" x1="7" x2="247" y1="40" y2="40"/><text fill="#000000" font-family="sans-serif" font-size="11" lengthAdjust="spacingAndGlyphs" textLength="105" x="14" y="56.6348">active : Boolean 0..1</text><text fill="#000000" font-family="sans-serif" font-size="11" lengthAdjust="spacingAndGlyphs" textLength="118" x="14" y="73.5898">address : Address 0..*</text><text fill="#000000" font-family="sans-serif" font-size="11" lengthAdjust="spacingAndGlyphs" textLength="106" x="14" y="90.5449">birthDate : Date 0..1</text><text fill="#000000" font-family="sans-serif" font-size="11" lengthAdjust="spacingAndGlyphs" textLength="208" x="14" y="107.5">communication : CodeableConcept 0..*</text><text fill="#000000" font-family="sans-serif" font-size="11" lengthAdjust="spacingAndGlyphs" textLength="187" x="14" y="124.4551">gender : AdministrativeGender 0..1</text><text fill="#000000" font-family="sans-serif" font-size="11" lengthAdjust="spacingAndGlyphs" textLength="126" x="14" y="141.4102">identifier : Identifier 0..*</text><text fill="#000000" font-family="sans-serif" font-size="11" lengthAdjust="spacingAndGlyphs" textLength="127" x="14" y="158.3652">name : HumanName 0..*</text><text fill="#000000" font-family="sans-serif" font-size="11" lengthAdjust="spacingAndGlyphs" textLength="124" x="14" y="175.3203">photo : Attachment 0..*</text><text fill="#000000" font-family="sans-serif" font-size="11" lengthAdjust="spacingAndGlyphs" textLength="226" x="14" y="192.2754">qualification : PractitionerQualification 0..*</text><text fill="#000000" font-family="sans-serif" font-size="11" lengthAdjust="spacingAndGlyphs" textLength="141" x="14" y="209.2305">telecom : ContactPoint 0..*</text><!--
@startuml
skinparam Shadowing false
skinparam padding 2
skinparam class {
    BorderColor Black
}

hide methods

class Practitioner {
	active : Boolean 0..1
	address : Address 0..*
	birthDate : Date 0..1
	communication : CodeableConcept 0..*
	gender : AdministrativeGender 0..1
	identifier : Identifier 0..*
	name : HumanName 0..*
	photo : Attachment 0..*
	qualification : PractitionerQualification 0..*
	telecom : ContactPoint 0..*
}

@enduml

PlantUML version 1.2018.10(Sat Aug 25 19:02:59 CEST 2018)
(APACHE source distribution)
Java Runtime: Java(TM) SE Runtime Environment
JVM: Java HotSpot(TM) 64-Bit Server VM
Java Version: 1.8.0_192-b12
Operating System: Mac OS X
OS Version: 10.14.6
Default Encoding: UTF-8
Language: en
Country: DE
--></g></svg>