<?xml version="1.0" encoding="UTF-8" standalone="no"?><svg xmlns="http://www.w3.org/2000/svg" xmlns:xlink="http://www.w3.org/1999/xlink" contentScriptType="application/ecmascript" contentStyleType="text/css" height="160px" preserveAspectRatio="none" style="width:292px;height:160px;" version="1.1" viewBox="0 0 292 160" width="292px" zoomAndPan="magnify"><defs/><g><!--class QuestionnaireResponseItem--><rect fill="#FEFECE" height="141.7305" id="QuestionnaireResponseItem" style="stroke: #000000; stroke-width: 1.5;" width="275" x="6" y="8"/><ellipse cx="57.25" cy="24" fill="#ADD1B2" rx="11" ry="11" style="stroke: #000000; stroke-width: 1.0;"/><path d="M59.7231,30.1431 Q59.1421,30.4419 58.5029,30.5913 Q57.8638,30.7407 57.1582,30.7407 Q54.6514,30.7407 53.3315,29.0889 Q52.0117,27.437 52.0117,24.3159 Q52.0117,21.1865 53.3315,19.5347 Q54.6514,17.8828 57.1582,17.8828 Q57.8638,17.8828 58.5112,18.0322 Q59.1587,18.1816 59.7231,18.4805 L59.7231,21.2031 Q59.0923,20.6221 58.4988,20.3523 Q57.9053,20.0825 57.2744,20.0825 Q55.9297,20.0825 55.2449,21.1492 Q54.5601,22.2158 54.5601,24.3159 Q54.5601,26.4077 55.2449,27.4744 Q55.9297,28.541 57.2744,28.541 Q57.9053,28.541 58.4988,28.2712 Q59.0923,28.0015 59.7231,27.4204 Z "/><text fill="#000000" font-family="sans-serif" font-size="12" lengthAdjust="spacingAndGlyphs" textLength="160" x="79.75" y="28.5352">QuestionnaireResponseItem</text><line style="stroke: #000000; stroke-width: 1.5;" x1="7" x2="280" y1="40" y2="40"/><text fill="#000000" font-family="sans-serif" font-size="11" lengthAdjust="spacingAndGlyphs" textLength="259" x="14" y="56.6348">answer : QuestionnaireResponseItemAnswer 0..*</text><text fill="#000000" font-family="sans-serif" font-size="11" lengthAdjust="spacingAndGlyphs" textLength="115" x="14" y="73.5898">definition : String 0..1</text><text fill="#000000" font-family="sans-serif" font-size="11" lengthAdjust="spacingAndGlyphs" textLength="204" x="14" y="90.5449">item : QuestionnaireResponseItem 0..*</text><text fill="#000000" font-family="sans-serif" font-size="11" lengthAdjust="spacingAndGlyphs" textLength="93" x="14" y="107.5">linkId : String 1..1</text><text fill="#000000" font-family="sans-serif" font-size="11" lengthAdjust="spacingAndGlyphs" textLength="124" x="14" y="124.4551">subject : Reference 0..1</text><text fill="#000000" font-family="sans-serif" font-size="11" lengthAdjust="spacingAndGlyphs" textLength="85" x="14" y="141.4102">text : String 0..1</text><!--
@startuml
skinparam Shadowing false
skinparam padding 2
skinparam class {
    BorderColor Black
}

hide methods

class QuestionnaireResponseItem {
	answer : QuestionnaireResponseItemAnswer 0..*
	definition : String 0..1
	item : QuestionnaireResponseItem 0..*
	linkId : String 1..1
	subject : Reference 0..1
	text : String 0..1
}

@enduml

PlantUML version 1.2018.10(Sat Aug 25 19:02:59 CEST 2018)
(APACHE source distribution)
Java Runtime: Java(TM) SE Runtime Environment
JVM: Java HotSpot(TM) 64-Bit Server VM
Java Version: 1.8.0_192-b12
Operating System: Mac OS X
OS Version: 10.14.6
Default Encoding: UTF-8
Language: en
Country: DE
--></g></svg>