<?xml version="1.0" encoding="UTF-8" standalone="no"?><svg xmlns="http://www.w3.org/2000/svg" xmlns:xlink="http://www.w3.org/1999/xlink" contentScriptType="application/ecmascript" contentStyleType="text/css" height="159px" preserveAspectRatio="none" style="width:285px;height:159px;" version="1.1" viewBox="0 0 285 159" width="285px" zoomAndPan="magnify"><defs/><g><!--MD5=[4b5a7a2c22699970cd8f7fdf4620afa9]
class GoalTarget--><rect fill="#FEFECE" height="141.7305" id="GoalTarget" style="stroke: #000000; stroke-width: 1.5;" width="267" x="7" y="7"/><ellipse cx="102.25" cy="23" fill="#ADD1B2" rx="11" ry="11" style="stroke: #000000; stroke-width: 1.0;"/><path d="M104.7231,29.1431 Q104.1421,29.4419 103.5029,29.5913 Q102.8638,29.7407 102.1582,29.7407 Q99.6514,29.7407 98.3315,28.0889 Q97.0117,26.437 97.0117,23.3159 Q97.0117,20.1865 98.3315,18.5347 Q99.6514,16.8828 102.1582,16.8828 Q102.8638,16.8828 103.5112,17.0322 Q104.1587,17.1816 104.7231,17.4805 L104.7231,20.2031 Q104.0923,19.6221 103.4988,19.3523 Q102.9053,19.0825 102.2744,19.0825 Q100.9297,19.0825 100.2449,20.1492 Q99.5601,21.2158 99.5601,23.3159 Q99.5601,25.4077 100.2449,26.4744 Q100.9297,27.541 102.2744,27.541 Q102.9053,27.541 103.4988,27.2712 Q104.0923,27.0015 104.7231,26.4204 Z "/><text fill="#000000" font-family="sans-serif" font-size="12" lengthAdjust="spacingAndGlyphs" textLength="64" x="124.75" y="27.5352">GoalTarget</text><line style="stroke: #000000; stroke-width: 1.5;" x1="8" x2="273" y1="39" y2="39"/><text fill="#000000" font-family="sans-serif" font-size="11" lengthAdjust="spacingAndGlyphs" textLength="251" x="15" y="55.6348">detailCodeableConcept : CodeableConcept 0..1</text><text fill="#000000" font-family="sans-serif" font-size="11" lengthAdjust="spacingAndGlyphs" textLength="153" x="15" y="72.5898">detailQuantity : Quantity 0..1</text><text fill="#000000" font-family="sans-serif" font-size="11" lengthAdjust="spacingAndGlyphs" textLength="127" x="15" y="89.5449">detailRange : Range 0..1</text><text fill="#000000" font-family="sans-serif" font-size="11" lengthAdjust="spacingAndGlyphs" textLength="100" x="15" y="106.5">dueDate : Date 0..1</text><text fill="#000000" font-family="sans-serif" font-size="11" lengthAdjust="spacingAndGlyphs" textLength="146" x="15" y="123.4551">dueDuration : Duration 0..1</text><text fill="#000000" font-family="sans-serif" font-size="11" lengthAdjust="spacingAndGlyphs" textLength="173" x="15" y="140.4102">measure : CodeableConcept 0..1</text><!--MD5=[4dd7ad083a8263bc70571d20288c44fc]
@startuml
skinparam Shadowing false
skinparam padding 2
skinparam class {
    BorderColor Black
}

hide methods

class GoalTarget {
	detailCodeableConcept : CodeableConcept 0..1
	detailQuantity : Quantity 0..1
	detailRange : Range 0..1
	dueDate : Date 0..1
	dueDuration : Duration 0..1
	measure : CodeableConcept 0..1
}

@enduml

PlantUML version 1.2020.06(Sun Apr 05 14:38:32 CEST 2020)
(APACHE source distribution)
Java Runtime: OpenJDK Runtime Environment
JVM: OpenJDK 64-Bit Server VM
Java Version: 1.8.0_242-release-1644-b3-6222593
Operating System: Mac OS X
Default Encoding: UTF-8
Language: en
Country: DE
--></g></svg>