<?xml version="1.0" encoding="UTF-8" standalone="no"?><svg xmlns="http://www.w3.org/2000/svg" xmlns:xlink="http://www.w3.org/1999/xlink" contentScriptType="application/ecmascript" contentStyleType="text/css" height="125px" preserveAspectRatio="none" style="width:284px;height:125px;" version="1.1" viewBox="0 0 284 125" width="284px" zoomAndPan="magnify"><defs/><g><!--MD5=[8b96c173f62fc47988721c5a9272ca14]
class UsageContext--><rect fill="#FEFECE" height="107.8203" id="UsageContext" style="stroke: #000000; stroke-width: 1.5;" width="266" x="7" y="7"/><ellipse cx="94.25" cy="23" fill="#ADD1B2" rx="11" ry="11" style="stroke: #000000; stroke-width: 1.0;"/><path d="M96.7231,29.1431 Q96.1421,29.4419 95.5029,29.5913 Q94.8638,29.7407 94.1582,29.7407 Q91.6514,29.7407 90.3315,28.0889 Q89.0117,26.437 89.0117,23.3159 Q89.0117,20.1865 90.3315,18.5347 Q91.6514,16.8828 94.1582,16.8828 Q94.8638,16.8828 95.5112,17.0322 Q96.1587,17.1816 96.7231,17.4805 L96.7231,20.2031 Q96.0923,19.6221 95.4988,19.3523 Q94.9053,19.0825 94.2744,19.0825 Q92.9297,19.0825 92.2449,20.1492 Q91.5601,21.2158 91.5601,23.3159 Q91.5601,25.4077 92.2449,26.4744 Q92.9297,27.541 94.2744,27.541 Q94.9053,27.541 95.4988,27.2712 Q96.0923,27.0015 96.7231,26.4204 Z "/><text fill="#000000" font-family="sans-serif" font-size="12" lengthAdjust="spacingAndGlyphs" textLength="79" x="116.75" y="27.5352">UsageContext</text><line style="stroke: #000000; stroke-width: 1.5;" x1="8" x2="272" y1="39" y2="39"/><text fill="#000000" font-family="sans-serif" font-size="11" lengthAdjust="spacingAndGlyphs" textLength="97" x="15" y="55.6348">code : Coding 1..1</text><text fill="#000000" font-family="sans-serif" font-size="11" lengthAdjust="spacingAndGlyphs" textLength="250" x="15" y="72.5898">valueCodeableConcept : CodeableConcept 1..1</text><text fill="#000000" font-family="sans-serif" font-size="11" lengthAdjust="spacingAndGlyphs" textLength="152" x="15" y="89.5449">valueQuantity : Quantity 1..1</text><text fill="#000000" font-family="sans-serif" font-size="11" lengthAdjust="spacingAndGlyphs" textLength="126" x="15" y="106.5">valueRange : Range 1..1</text><!--MD5=[d0e2e920a9f72e2da25a502e91f3bead]
@startuml
skinparam Shadowing false
skinparam padding 2
skinparam class {
    BorderColor Black
}

hide methods

class UsageContext {
	code : Coding 1..1
	valueCodeableConcept : CodeableConcept 1..1
	valueQuantity : Quantity 1..1
	valueRange : Range 1..1
}

@enduml

PlantUML version 1.2020.06(Sun Apr 05 14:38:32 CEST 2020)
(APACHE source distribution)
Java Runtime: OpenJDK Runtime Environment
JVM: OpenJDK 64-Bit Server VM
Java Version: 1.8.0_242-release-1644-b3-6222593
Operating System: Mac OS X
Default Encoding: UTF-8
Language: en
Country: DE
--></g></svg>